<svg width="700" height="700" xmlns="http://www.w3.org/2000/svg"><style>@media (prefers-color-scheme:dark){.a{fill:#fff}}</style><path class="a" d="M85.362 531.77c-14.988-.005-34.493-2.948-41.087-18.667-4.294-10.235.628-22.9 5.618-32 11.345-20.692 26.073-38.242 42.71-54.667 7.475-7.38 16.9-19.195 4.75-28.429-14.6-11.948-29.62 15.459-40.139 24.429-21.813 26.559-57.459 76.458-35.13 110.65 18.233 27.117 57.396 26.083 85.975 25.373 78.655-5.33 164.26-39.068 236.33-73.061 99.888-50.17 198.63-108.34 279.05-186.96 26.845-30.383 67.585-73.553 60.804-117.33-8.437-46.732-77.58-44.049-112.87-39.028-13.135 3.014-36.295 1.232-41.14 15.033-3.383 9.633 4.783 18.608 14.436 18.151 43.132-6.431 80.987-18.74 106.53 3.317 11.826 12.62 4.683 29.591-2.689 42.527-17.148 30.087-43.054 53.691-67.79 77.333-2.267-27.709-17.818-57.25-32.937-80-53.95-81.17-156-122.98-251.46-100.46-111.63 26.336-186.49 131.52-181.54 244.46 1.79 40.823 16.881 82.031 39.128 116 9.032 13.79 20.46 24.893 31.317 37.858-36.998 8.548-65.53 15.49-99.872 15.476zm252.35-391.62c77.652-6.606 161.75 41.823 196.6 110.29 7.99 15.697 14.55 32.128 18.518 49.333 1.265 5.492 4.256 14.492 2.1 19.948-2.81 7.11-14.803 11.534-19.61 17.54-16.96 12.921-34.323 25.361-52.072 37.179-59.895 39.877-124.21 73.396-189.6 103.04-17.152 7.385-30.68 12.425-48.27 18.698-8.652 3.423-17.045 5.901-27.877 10.402-10.447-8.002-25.103-22.857-31.867-31.557-29.615-38.092-42.867-83.586-42.864-131.25 2.622-110.67 84.246-194.32 194.94-203.62m-56.08 65.659c-43.598 11.832-27.925 67.511 10.683 61.255 41.686-12.418 27.046-64.3-10.682-61.255m1.478 33.96c-3.862-5.985 2.585-9.797 6.819-6.202 4.419 5.428-3.904 10.303-6.82 6.202zm-60.227 32.624c-67.496 17.756-44.946 105.83 17.358 98.756 69.744-20.226 44.362-107.38-17.358-98.756m2.67 27.829c32.874-7.028 37.88 37.729 12.017 43.108-32.238 5.103-35.909-37.752-12.017-43.108m345.84 63.203c-6.959 2.73-8.145 9.823-9.258 16.344-2.249 13.169-5.22 25.991-9.455 38.667-12.44 37.243-35.969 71.467-66.76 95.995-41.778 33.28-95.874 51.549-149.54 46.445-21.569-2.05-42.66-7.143-62.756-15.245-8.437-3.403-19.179-10.303-27.754-3.59-7.717 6.04-6.561 17.696 1.19 23.07 15.648 7.342 32.7 13.788 47.927 17.044 51.702 11.06 108.17 7.151 156.22-16.063 54.235-26.203 98.434-67.88 122.46-123.66 8.545-19.835 15.793-42.324 17.298-64 .745-10.72-8.965-19.169-19.573-15.01z" fill="#040404"/></svg>